<?xml version="1.0" encoding="UTF-8"?>
<svg id="Camada_2" xmlns="http://www.w3.org/2000/svg" width="121.02" height="126.39" viewBox="0 0 121.02 126.39">
  <g id="Layer_1">
    <g>
      <path d="M61.13,32.35V15.52s-22.34-.66-33.22,15.48c-6.37,10.9-7.57,29.27-6.06,41.82,1.73,14.46,7.83,32.31,26.06,42.18,8.57,5.99,20.93,4.33,24.31,2.67,6.5-3.19,27-16.67,26.88-48.6.36-5.99.95-18.4-1.72-30.09-1.65-5.13-4.05-6.51-12.17-6.16-8.29.23-8.63-.25-8.63-8.98l-.08-7.58s-1.19-8.07,9.21-8.07c9.95.06,19.61,0,19.61,0" fill="none" stroke="#000" stroke-linecap="round" stroke-linejoin="round" stroke-width="5"/>
      <path d="M62.56,2.5S15.36,2.5,8.31,49.66" fill="none" stroke="#000" stroke-linecap="round" stroke-linejoin="round" stroke-width="5"/>
      <path d="M94.87,18.75c8.05,6.33,15.91,15.94,18.15,30.91" fill="none" stroke="#000" stroke-linecap="round" stroke-linejoin="round" stroke-width="5"/>
      <path d="M112.88,87.7c-2.19,10-9.81,27.53-28.07,36.2" fill="none" stroke="#000" stroke-linecap="round" stroke-linejoin="round" stroke-width="5"/>
      <path d="M8.09,87.7c2.19,10,9.81,27.53,28.07,36.2" fill="none" stroke="#000" stroke-linecap="round" stroke-linejoin="round" stroke-width="5"/>
      <circle cx="110.2" cy="8.19" r="4.28" transform="translate(100.55 118.27) rotate(-89.24)" fill="none" stroke="#000" stroke-linecap="round" stroke-linejoin="round" stroke-width="5"/>
      <circle cx="60.67" cy="38.04" r="4.28" transform="translate(21.83 98.2) rotate(-89.24)" fill="none" stroke="#000" stroke-linecap="round" stroke-linejoin="round" stroke-width="5"/>
      <circle cx="9.57" cy="8.19" r="4.28" transform="translate(1.26 17.65) rotate(-89.24)" fill="none" stroke="#000" stroke-linecap="round" stroke-linejoin="round" stroke-width="5"/>
      <circle cx="110.2" cy="119.21" r="4.28" transform="translate(-10.46 227.82) rotate(-89.24)" fill="none" stroke="#000" stroke-linecap="round" stroke-linejoin="round" stroke-width="5"/>
      <circle cx="9.57" cy="119.21" r="4.28" transform="translate(-109.75 127.2) rotate(-89.24)" fill="none" stroke="#000" stroke-linecap="round" stroke-linejoin="round" stroke-width="5"/>
      <circle cx="6.78" cy="68.61" r="4.28" transform="translate(-61.91 74.48) rotate(-89.24)" fill="none" stroke="#000" stroke-linecap="round" stroke-linejoin="round" stroke-width="5"/>
      <path d="M32.22,45.8s23.25-.39,23.59,13.81c.24,10.15.14,14.53.06,16.21-.03.74.04,1.48.27,2.19.55,1.76,1.92,4.69,4.83,4.56,4.14-.19,4.77-3.5,4.77-3.5l32.38.02" fill="none" stroke="#000" stroke-linecap="round" stroke-linejoin="round" stroke-width="5"/>
      <path d="M90.59,45.8s-23.25-.39-23.59,13.81" fill="none" stroke="#000" stroke-linecap="round" stroke-linejoin="round" stroke-width="5"/>
      <path d="M29.69,56.91s10.2-11.72,24.26-3.24" fill="none" stroke="#000" stroke-linecap="round" stroke-linejoin="round" stroke-width="5"/>
      <path d="M70.08,52.5c12.93-6.11,22.08,4.41,22.08,4.41h6.68" fill="none" stroke="#000" stroke-linecap="round" stroke-linejoin="round" stroke-width="5"/>
      <line x1="21.26" y1="68.61" x2="11.06" y2="68.61" fill="none" stroke="#000" stroke-linecap="round" stroke-linejoin="round" stroke-width="5"/>
      <circle cx="114.24" cy="68.61" r="4.28" transform="translate(-.9 1.52) rotate(-.76)" fill="none" stroke="#000" stroke-linecap="round" stroke-linejoin="round" stroke-width="5"/>
      <line x1="99.76" y1="68.61" x2="109.96" y2="68.61" fill="none" stroke="#000" stroke-linecap="round" stroke-linejoin="round" stroke-width="5"/>
      <g>
        <g>
          <circle cx="42.19" cy="56.91" r="5.4" transform="translate(-15.95 97.39) rotate(-88.3)"/>
          <circle cx="79.16" cy="56.91" r="5.4" transform="translate(19.93 134.35) rotate(-88.3)"/>
        </g>
        <path d="M60.76,100.99c-3.91-.3-7.54-1.19-11.11-2.37-1.18-.39-1.72-1.32-1.69-2.5.03-1.16.56-1.96,1.82-2.28,2.03-.52,4.09-1.02,6.17-1.26.98-.11,2.07.28,3.03.65,1.21.47,2.31.57,3.49-.07,1.77-.97,3.64-.65,5.49-.25,1.09.24,2.18.49,3.25.8,1.44.41,2.14,1.24,2.18,2.46.04,1.18-.56,2.03-1.99,2.49-3.51,1.12-7.08,2.02-10.63,2.34Z"/>
      </g>
    </g>
  </g>
</svg>